<?xml version="1.0" encoding="UTF-8"?>
<svg id="Layer_1" data-name="Layer 1" xmlns="http://www.w3.org/2000/svg" viewBox="0 0 386.54 340.03">
  <defs>
    <style>
      .cls-1 {
        fill: #37a9b4;
      }

      .cls-2 {
        fill: none;
        stroke: #38abb5;
        stroke-miterlimit: 10;
        stroke-width: 4px;
      }

      .cls-3 {
        fill: #38abb5;
      }
    </style>
  </defs>
  <path class="cls-1" d="M109.5,104.03c32.2,4.18,69.11,19.52,90.18,44.77.02.03.04.05.06.08,11.68,15.87,11.45,32.05,11.32,51.16q0,2.1-.01,4.24c-.01,4.41-.03,8.81-.06,13.22-.03,5.85-.05,11.7-.07,17.54,0,1.34-.02,2.67-.03,4.05,0,1.24,0,2.48-.01,3.76q0,1.63-.02,3.3c.08,1.9.31,3.59.71,5.33.21.89,1.35,1.16,1.95.47l.51-.58c16.69-18.92,38.41-32.96,63.6-37.38.07-.01.14-.02.21-.02h2.16c.62,0,1.13-.51,1.13-1.13v-57.88c0-1.05-1-1.81-2.01-1.54-16.07,4.26-17.27,4.67-32.05,11.1-1.23.53-2.45,1.11-3.64,1.72l-.9.46c-4.92,2.56-9.57,5.43-14.15,8.49-3.78,2.52-8.93.75-10.38-3.56l-.03-.1c-.11-.34-.07-.71.13-1,10.79-16.07,36.64-23.96,54.64-28.12,1.28-.27,2.56-.54,3.88-.82,1.01-.22,2.01-.44,3.05-.66.7-.13,1.39-.23,2.07-.32,6.45-.81,12.13,4.25,12.11,10.75v.15c0,.77,0,1.55,0,2.34,0,2.55-.02,5.1-.04,7.66,0,1.77,0,3.54,0,5.31,0,4.66-.03,9.32-.06,13.98-.02,4.75-.03,9.51-.04,14.26-.02,9.1-.06,18.2-.11,27.29,0,.42-.24.82-.62,1.01-3.99,2.02-7.64,2.66-12.18,3.36-26.88,4.69-51.12,21.49-67.33,43.22-.69.93-1.39,1.85-2.1,2.81l-1.8,2.51s-.07.09-.1.13c-2.12,2.25-3.13,2.69-6.07,3.05-.19.02-.4,0-.57-.07-2.17-.82-2.27-.88-4.8-2.31-.98-.54-1.95-1.07-2.96-1.63q-1.55-.87-3.13-1.76c-9.32-5.06-18.25-9.23-28.42-12.3-1.34-.41-2.67-.83-4.05-1.25-21.93-6.55-43.6-7.5-66.34-5.94-16.42,1.1-17.39,1.17-20.61-.41-.39-.19-.64-.58-.64-1.02-.08-16.06-.14-32.12-.17-48.18-.02-7.57-.04-15.13-.08-22.7-.04-7.3-.06-14.6-.07-21.89,0-2.79-.02-5.57-.04-8.36-.02-3.9-.03-7.79-.03-11.69-.01-1.16-.02-2.32-.04-3.51,0-1.06,0-2.13.01-3.22v-2.68c0-.07,0-.15,0-.22l.02-.09c.71-3.99,4.55-6.71,8.55-6.04l1.28.21c.45.07.81.41.92.85,1.65,6.58,2.39,12.7,2.32,19.52,0,.95,0,1.9,0,2.87,0,3.1-.03,6.2-.05,9.31,0,2.17-.01,4.35-.02,6.52-.01,5.7-.04,11.4-.07,17.1-.05,9.13-.08,18.26-.11,27.38-.01,3.18-.03,6.36-.05,9.53,0,1.96-.02,3.91-.02,5.87,0,.88-.02,1.75-.02,2.65,0,4.79.35,9.32,1.08,14.01.09.58.61,1,1.2.96l3.37-.22c31.29-1.87,58.16,1.71,87.84,11.83,1.88.61,3.76,1.15,5.66,1.63.44.11.74-.45.41-.76-19.78-18.14-44.88-25.22-71.26-27.77-2.95-.32-5.5-.73-8.29-1.45-.4-.1-.72-.42-.83-.82-.76-2.88-1.1-5.52-1.11-8.56q0-1.38-.02-2.8c0-1,0-2.01,0-3.04,0-1.06-.01-2.13-.02-3.22-.02-3.52-.02-7.03-.03-10.55,0-2.44-.01-4.89-.02-7.33-.01-5.12-.02-10.24-.02-15.36,0-6.57-.03-13.13-.07-19.7-.02-5.04-.03-10.09-.03-15.13,0-2.42-.01-4.84-.03-7.26-.02-3.38-.02-6.76,0-10.15-.01-1-.02-2.01-.03-3.04.04-5.88.05-6.64,1.33-9.12.46-.89,1.09-1.69,1.89-2.3.49-.37.86-.54,1.46-.68.94-.21,1.91-.23,2.86-.11ZM119.23,117.9c-2.38-.16-4.4,1.73-4.41,4.11-.02,10.82-.04,21.63-.05,32.45,0,5.67-.01,11.35-.03,17.02-.01,5.47-.02,10.94-.02,16.42,0,2.09,0,4.18-.01,6.28,0,2.92,0,5.84,0,8.76v2.6s-.01.07-.02.1c-.33,3.67-.34,3.89,1.01,6.65.16.33.48.57.85.63,2.08.32,4.16.64,6.24.93,22.68,3.14,44.98,10.23,63.01,24.75.2.16.44.25.7.25h.74c.62,0,1.13.51,1.13,1.13h0c0,.62.51,1.13,1.13,1.13h.37c.46,0,.87.28,1.05.7l.46,1.12c.02.05.05.11.08.16,1.46,2.54,3.29,4.48,5.3,6.45.7.68,1.88.23,1.93-.75.83-16.03,1.19-32,.91-48.06-.04-2.38-.06-4.76-.07-7.14-.02-3.52-.07-7.04-.13-10.56,0-1.05,0-2.1,0-3.17-.35-13.41-7.52-22.34-16.68-31.52-.6-.61-1.2-1.23-1.82-1.86-14.3-13.38-40.85-27.19-61.65-28.58Z"/>
  <g>
    <ellipse class="cls-2" cx="230.09" cy="95.87" rx="49.05" ry="16.98" transform="translate(84.03 297.85) rotate(-76.75)"/>
    <ellipse class="cls-2" cx="230.09" cy="95.87" rx="16.98" ry="49.05" transform="translate(2.6 197.76) rotate(-46.75)"/>
    <ellipse class="cls-2" cx="230.09" cy="95.87" rx="49.05" ry="16.98" transform="translate(-17.86 70.36) rotate(-16.75)"/>
  </g>
  <circle class="cls-3" cx="230.09" cy="95.87" r="5.17"/>
</svg>